<?xml version="1.0" encoding="utf-8"?>
<!-- Generator: Adobe Illustrator 24.0.2, SVG Export Plug-In . SVG Version: 6.00 Build 0)  -->
<svg version="1.1" id="Layer_1" xmlns="http://www.w3.org/2000/svg" xmlns:xlink="http://www.w3.org/1999/xlink" x="0px" y="0px"
	 viewBox="0 0 1200 677.1" style="enable-background:new 0 0 1200 677.1;" xml:space="preserve">
<g>
	<g>
		<g>
			<g>
				<polygon points="132.1,288 152.7,288 200.3,371 209.5,355.3 219.5,372.5 200.2,405.7 				"/>
			</g>
			<g>
				<polygon points="263.8,378.9 263.8,378.9 262.3,376.3 				"/>
			</g>
			<g>
				<polygon points="259.1,378.9 243.6,405.7 204.2,336.5 194.3,318.9 203.8,302.6 213.8,319.9 243.5,371.2 249.1,361.8 				"/>
			</g>
			<g>
				<polygon points="191.9,323 201.9,340.5 194.7,352.9 184.6,335.5 				"/>
			</g>
			<g>
				<polygon points="299.6,405.7 279.2,405.7 263.8,378.9 262.3,376.3 221.9,306 216.1,315.9 206.1,298.5 221.9,271.4 				"/>
			</g>
			<g>
				<polygon points="169.7,361.8 144.2,405.6 164.4,405.6 179.9,378.9 				"/>
			</g>
			<g>
				<polygon points="292,288.5 311.2,288.4 274.2,352.7 264.2,336 				"/>
			</g>
		</g>
	</g>
	<g>
		<g>
			<path d="M347,395.9l39.1-102.5l25.1,0l39.5,102.5l-24.9,0l-8.3-21.8l-39.7,0l-7.2,21.8L347,395.9z M412.3,356.9l-11.5-33.1
				c-0.3-1-0.7-2.7-1.3-5c-0.5-2.4-1-5.3-1.6-8.8c-0.6,3.3-1.2,6.3-1.8,8.9c-0.6,2.6-1,4.4-1.3,5.3l-11.1,32.7L412.3,356.9z"/>
			<path d="M461.4,395.9l0.1-102.5l21.9,0l0,83.9l35,0l0,18.6L461.4,395.9z"/>
			<path d="M562.7,312.1l0,83.9l-22,0l0-83.9l-25.1,0l0-18.6l72.1,0l0,18.6L562.7,312.1z"/>
			<path d="M582,396l39.1-102.5l25.1,0l39.5,102.5l-24.9,0l-8.3-21.8l-39.7,0l-7.2,21.8L582,396z M647.3,357l-11.5-33.1
				c-0.3-1-0.7-2.7-1.3-5c-0.5-2.4-1-5.3-1.6-8.8c-0.6,3.3-1.2,6.3-1.8,8.9c-0.6,2.6-1,4.4-1.3,5.3L618.9,357L647.3,357z"/>
			<path d="M765.2,293.6l15.2,55.6c1,3.5,1.9,7.4,2.7,11.4c0.8,4.1,1.6,8.6,2.4,13.7c0.1-4.2,0.4-8.4,1-12.6
				c0.5-4.1,1.3-8.3,2.4-12.5l13.3-55.6l21.6,0L797,396.1l-21.1,0l-18.3-65.4c-0.9-3-1.6-6-2.1-9c-0.5-3-0.9-6.2-1-9.5
				c-0.2,3.5-0.6,6.7-1.1,9.8c-0.5,3.1-1.1,6-1.9,8.7l-18.5,65.4l-21.1,0l-26.8-102.5l21.9,0l13.5,56.9c0.7,3.3,1.3,6.8,1.8,10.6
				c0.5,3.8,0.8,7.9,1,12.4c0.9-5.9,2.5-13.4,4.9-22.5l0.4-1.5l15.1-55.9L765.2,293.6z"/>
			<path d="M838,396.2l0.1-102.5l60.4,0l0,18.5l-38.4,0l0,21.1l38.4,0l0,18.6l-38.4,0l0,25.7l38.4,0l0,18.6L838,396.2z"/>
			<path d="M919.8,396.2l0.1-102.5l19.2,0c9.9,0,17.2,0.4,21.8,1.2c4.6,0.8,8.6,2,11.9,3.8c4,2.3,7,5.3,9.2,9
				c2.2,3.7,3.3,8,3.2,12.7c0,6.1-1.8,10.9-5.4,14.6c-3.6,3.7-9,6.1-16.1,7.3c8.3,1.2,14.5,3.9,18.7,8.1c4.2,4.2,6.3,9.7,6.3,16.6
				c0,5-1.2,9.7-3.6,13.8c-2.4,4.2-5.8,7.4-10,9.7c-3.8,2.1-8.2,3.5-13.3,4.4s-13.5,1.3-25.3,1.3l-2.2,0L919.8,396.2z M941.8,379.1
				l8.6,0c5.5,0,9.7-1.2,12.5-3.6c2.8-2.4,4.3-5.9,4.3-10.5c0-4.3-1.4-7.7-4.2-9.9c-2.8-2.3-6.9-3.4-12.3-3.4l-8.9,0L941.8,379.1z
				 M941.8,334.7l4.9,0c6.6,0,11.3-0.9,14.1-2.8c2.8-1.9,4.1-5,4.1-9.4c0-4.3-1.3-7.4-4-9.2c-2.6-1.8-7.2-2.7-13.8-2.7l-5.3,0
				L941.8,334.7z"/>
			<path d="M998.9,383.2l12.2-13.8c1.5,3.8,4,6.8,7.4,8.9c3.4,2.2,7.2,3.3,11.5,3.3c5.1,0,9.2-1.2,12.2-3.6c3-2.4,4.5-5.7,4.5-9.8
				c0-4.9-5-9.7-14.9-14.5c-3.2-1.5-5.8-2.8-7.6-3.8c-9-4.7-15.2-9.2-18.6-13.7c-3.5-4.5-5.2-9.8-5.2-15.9c0-8.4,3.4-15.4,10.1-20.8
				c6.7-5.4,15.4-8.1,26.1-8.1c6.2,0,11.6,1.1,16.1,3.3c4.5,2.2,8.5,5.6,11.9,10.2l-13,12.4c-1.5-3-3.6-5.2-6.1-6.7
				c-2.5-1.5-5.6-2.2-9.2-2.2c-4.3,0-7.8,1.1-10.5,3.3s-4,5-4,8.4c0,5.4,5.3,10.4,15.8,14.9c2.1,0.9,3.7,1.6,4.8,2.1
				c8.7,4,15.1,8.5,19.3,13.5c4.2,5,6.3,10.7,6.3,17.1c0,9.6-3.3,17.3-9.9,23c-6.6,5.7-15.4,8.6-26.4,8.6c-7.8,0-14.6-1.4-20.2-4.1
				C1005.8,392.2,1001.6,388.3,998.9,383.2z"/>
		</g>
	</g>
</g>
</svg>
